<?xml version="1.0" encoding="UTF-8" standalone="no"?>
<!-- Created with Inkscape (http://www.inkscape.org/) -->

<svg
   xmlns:dc="http://purl.org/dc/elements/1.1/"
   xmlns:cc="http://creativecommons.org/ns#"
   xmlns:rdf="http://www.w3.org/1999/02/22-rdf-syntax-ns#"
   xmlns:svg="http://www.w3.org/2000/svg"
   xmlns="http://www.w3.org/2000/svg"
   xmlns:sodipodi="http://sodipodi.sourceforge.net/DTD/sodipodi-0.dtd"
   xmlns:inkscape="http://www.inkscape.org/namespaces/inkscape"
   version="1.1"
   id="svg3820"
   width="18.022459"
   height="17.64542"
   viewBox="0 0 18.022459 17.64542"
   sodipodi:docname="main_icon.svg"
   inkscape:version="0.92.1 r15371">
  <metadata
     id="metadata3826">
    <rdf:RDF>
      <cc:Work
         rdf:about="">
        <dc:format>image/svg+xml</dc:format>
        <dc:type
           rdf:resource="http://purl.org/dc/dcmitype/StillImage" />
        <dc:title></dc:title>
      </cc:Work>
    </rdf:RDF>
  </metadata>
  <defs
     id="defs3824" />
  <sodipodi:namedview
     pagecolor="#ffffff"
     bordercolor="#666666"
     borderopacity="1"
     objecttolerance="10"
     gridtolerance="10"
     guidetolerance="10"
     inkscape:pageopacity="0"
     inkscape:pageshadow="2"
     inkscape:window-width="1920"
     inkscape:window-height="1001"
     id="namedview3822"
     showgrid="false"
     fit-margin-top="0"
     fit-margin-left="0"
     fit-margin-right="0"
     fit-margin-bottom="0"
     inkscape:showpageshadow="false"
     borderlayer="false"
     showborder="true"
     inkscape:pagecheckerboard="true"
     inkscape:zoom="37.083822"
     inkscape:cx="-5.6715516"
     inkscape:cy="8.2319329"
     inkscape:window-x="-9"
     inkscape:window-y="-9"
     inkscape:window-maximized="1"
     inkscape:current-layer="svg3820" />
  <path
     style="fill:#141414"
     d="m 8.2354398,17.200202 c -0.29984,-0.313391 -0.614562,-0.597069 -0.660335,-0.823797 -0.0926,-0.458666 0.581901,-0.934439 2.371599,-2.703112 2.8193542,-2.786233 2.8511482,-2.722755 2.6849082,-3.14536 -0.107864,-0.274205 -0.09342,-0.255612 -5.3224432,-0.140346 0,0 0.117882,0.100855 -1.210149,1.533772 -1.814264,1.957553 -1.57157,1.768792 -1.57157,1.768792 -0.280196,0.173512 -0.242694,0.323591 -1.562364,-1.142273 -0.245168,-0.272328 -0.08631,-0.297049 0.68648,-1.191966 1.241935,-1.4381927 1.371071,-1.4186847 -0.951442,-1.4109727 -0.565356,0.00188 -0.809048,0.035078 -2.48373002,0.016603 -0.31001,-0.00342 -0.172613,-1.0928738 -0.172613,-1.0928738 0.06982,-0.4332102 -0.195378,-1.1089612 0.09695,-1.1947398 0.543529,-0.1594882 1.63063102,-0.021009 2.58173102,-0.016361 1.918755,0.00938 1.851294,-0.061118 1.005373,-1.2761426 -0.399749,-0.5741735 -0.704198,-0.8936679 -0.731401,-1.206224 -0.01791,-0.2057745 -0.08738,-0.3995157 0.264744,-0.5615557 1.392531,-0.640812 0,0 1.392531,-0.640812 0.355907,-0.1637807 0,0 1.445309,1.9956877 1.114494,1.5388971 0.708986,1.4353457 1.261858,1.4205689 5.2168022,-0.1394313 5.2360912,0.2510516 5.3516322,-0.274261 0.08215,-0.3734775 0.423971,0.052484 -2.7168272,-3.2554761 -2.199201,-2.316248 0,0 -2.131081,-2.4040019 -0.154893,-0.1747296 -0.05039,-0.044074 0.573292,-0.80342362 0.660982,-0.80477013 0.625315,-0.71796183 0.849744,-0.50814483 C 11.9399,2.6233681 11.882472,2.7176512 13.634417,4.5027526 L 18.02246,8.9738424 13.427009,13.569293 C 9.0646898,17.93161 9.1137708,18.118231 8.2354378,17.200202 Z"
     id="path3830"
     inkscape:connector-curvature="0"
     sodipodi:nodetypes="sssssscssssssssssssssssssscss" />
</svg>
